<svg width="16" height="16" viewBox="0 0 16 16" fill="none" xmlns="http://www.w3.org/2000/svg">
<path fill-rule="evenodd" clip-rule="evenodd" d="M4 5C5.10458 5 6 4.10457 6 3C6 2.7826 5.96533 2.57329 5.90118 2.37733C6.55447 2.13337 7.26166 2 8 2C8.73834 2 9.44553 2.13337 10.0988 2.37733C10.0347 2.57329 10 2.7826 10 3C10 4.10457 10.8954 5 12 5C12.3742 5 12.7244 4.89724 13.0239 4.7184C13.6411 5.66142 14 6.7888 14 8C14 9.2112 13.6411 10.3386 13.0239 11.2816C12.7244 11.1028 12.3742 11 12 11C10.8954 11 10 11.8954 10 13C10 13.2174 10.0347 13.4267 10.0988 13.6227C9.44556 13.8666 8.73834 14 8 14C7.26166 14 6.55444 13.8666 5.90115 13.6227C5.9653 13.4267 6 13.2174 6 13C6 11.8954 5.10458 11 4 11C3.62582 11 3.2756 11.1028 2.9761 11.2816C2.35889 10.3386 2 9.2112 2 8C2 6.7888 2.35889 5.66142 2.9761 4.7184C3.2756 4.89724 3.62582 5 4 5ZM10 8C10 9.10457 9.10458 10 8 10C6.89542 10 6 9.10457 6 8C6 6.89543 6.89542 6 8 6C9.10458 6 10 6.89543 10 8ZM8 9.5C8.82843 9.5 9.5 8.82843 9.5 8C9.5 7.17157 8.82843 6.5 8 6.5C7.17157 6.5 6.5 7.17157 6.5 8C6.5 8.82843 7.17157 9.5 8 9.5Z" fill="#D9D9D9"/>
<circle cx="4" cy="13" r="1.5" fill="#D9D9D9"/>
<circle cx="12" cy="13" r="1.5" fill="#D9D9D9"/>
<circle cx="12" cy="3" r="1.5" fill="#D9D9D9"/>
<circle cx="4" cy="3" r="1.5" fill="#D9D9D9"/>
<path d="M8 0L8.86603 1.5H7.13397L8 0Z" fill="#D9D9D9"/>
<path d="M8 16L7.13397 14.5H8.86603L8 16Z" fill="#D9D9D9"/>
<path d="M0 8L1.5 7.13397L1.5 8.86603L0 8Z" fill="#D9D9D9"/>
<path d="M16 8L14.5 8.86603V7.13397L16 8Z" fill="#D9D9D9"/>
</svg>
