<svg width="40" height="41" viewBox="0 0 40 41" fill="none" xmlns="http://www.w3.org/2000/svg">
<path d="M18.8969 1C12.7468 4.97273 8.58952 11.9855 8.58952 19.9999C8.58952 28.0145 12.7468 35.0272 19 39C8.45208 39 0 30.5018 0 19.9999C0 14.9609 1.99091 10.1282 5.53478 6.56497C9.07864 3.00178 13.8851 1 18.8969 1Z" fill="#0E0E25"/>
<path d="M28.1738 31.7876L23.1303 28.6855L18.2609 32L19.7391 26.3909L15 22.8639L20.913 22.4815L22.8695 17L25.0869 22.3966L31 22.524L26.4348 26.2209L28.1738 31.7876Z" fill="#0E0E25"/>
<path d="M20.9345 9.90729L19.0571 8.6755L17.2304 10L17.7632 7.74834L16 6.34438L18.2199 6.18543L18.9556 4L19.8055 6.15894L22 6.19867L20.2875 7.69537L20.9345 9.90729Z" fill="#0E0E25"/>
</svg>
