<svg width="40" height="41" viewBox="0 0 40 41" fill="none" xmlns="http://www.w3.org/2000/svg">
<path d="M32 29L34.4029 24L39 28.5848L32 29Z" fill="white"/>
<path d="M34.3892 17L32 11L39 11.5179L34.3892 17Z" fill="white"/>
<path d="M23 34.4029L28 32L27.5668 39L23 34.4029Z" fill="white"/>
<path d="M11 32L17 34.4101L11.5199 39L11 32Z" fill="white"/>
<path d="M8 11L5.59706 17L1 11.4983L8 11Z" fill="white"/>
<path d="M5.61081 24L8 29L1 28.5684L5.61081 24Z" fill="white"/>
<path d="M17 6.59706L11 9L11.5199 2L17 6.59706Z" fill="white"/>
<path d="M28 9L23 6.58986L27.5668 2L28 9Z" fill="white"/>
<path fill-rule="evenodd" clip-rule="evenodd" d="M31.1031 20.6847C31.1031 26.9909 25.9909 32.1031 19.6847 32.1031C13.3785 32.1031 8.26627 26.9909 8.26627 20.6847C8.26627 14.3784 13.3785 9.26624 19.6847 9.26624C25.9909 9.26624 31.1031 14.3784 31.1031 20.6847ZM28.335 20.6847C28.335 25.4621 24.4621 29.335 19.6847 29.335C14.9073 29.335 11.0344 25.4621 11.0344 20.6847C11.0344 15.9072 14.9073 12.0343 19.6847 12.0343C24.4621 12.0343 28.335 15.9072 28.335 20.6847ZM19.6847 25.8749C22.5512 25.8749 24.8749 23.5511 24.8749 20.6847C24.8749 17.8182 22.5512 15.4945 19.6847 15.4945C16.8182 15.4945 14.4945 17.8182 14.4945 20.6847C14.4945 23.5511 16.8182 25.8749 19.6847 25.8749Z" fill="white"/>
</svg>
