<svg width="40" height="41" viewBox="0 0 40 41" fill="none" xmlns="http://www.w3.org/2000/svg">
<path d="M20.886 1C14.0886 4.97273 9.49368 11.9855 9.49368 19.9999C9.49368 28.0145 14.0886 35.0272 21 39C9.34177 39 0 30.5018 0 19.9999C0 14.9609 2.20048 10.1282 6.11738 6.56497C10.0343 3.00178 15.3467 1 20.886 1Z" fill="#1D076B"/>
<path d="M30.1738 33.7876L25.1303 30.6855L20.2609 34L21.7391 28.3909L17 24.8639L22.913 24.4815L24.8695 19L27.0869 24.3966L33 24.524L28.4348 28.2209L30.1738 33.7876Z" fill="#1D076B"/>
<path d="M37.4103 14.8725L34.5733 13.0113L31.8343 15L32.6658 11.6345L30 9.51836L33.326 9.28892L34.4266 6L35.6739 9.23793L39 9.31441L36.4321 11.5326L37.4103 14.8725Z" fill="#1D076B"/>
<path d="M22.9345 9.90729L21.0571 8.6755L19.2304 10L19.7632 7.74834L18 6.34438L20.2199 6.18543L20.9556 4L21.8055 6.15894L24 6.19867L22.2875 7.69537L22.9345 9.90729Z" fill="#1D076B"/>
</svg>
